<svg xmlns="http://www.w3.org/2000/svg" version="1.1" xmlns:xlink="http://www.w3.org/1999/xlink" width="123" height="123"><svg width="123" height="123" viewBox="0 0 123 123" fill="none" xmlns="http://www.w3.org/2000/svg">
<path d="M114.673 12.6335C114.638 12.4266 114.544 12.2342 114.403 12.0786C114.262 11.9231 114.08 11.811 113.878 11.7555C100.385 7.96968 68.5498 18.7614 50.9438 35.2103C47.8044 38.1207 44.9246 41.2993 42.3372 44.7099C37.101 44.0679 31.8359 44.2784 27.2939 46.0784C14.4769 51.2104 10.31 65.59 9.0749 71.7946C9.00527 72.1341 9.01535 72.4852 9.10437 72.8201C9.19338 73.1551 9.3589 73.4649 9.5879 73.725C9.8169 73.9852 10.1031 74.1887 10.4241 74.3195C10.7451 74.4503 11.092 74.5049 11.4376 74.4789L31.7939 72.927C31.7567 74.4565 31.7973 75.9869 31.9157 77.5123C31.9821 78.5711 32.4173 79.5731 33.1456 80.3444L40.7345 88.4446C41.4557 89.2222 42.4257 89.7238 43.4772 89.8628C44.9826 90.0827 46.4983 90.2262 48.0183 90.2929L45.1089 110.473C45.0601 110.816 45.0915 111.165 45.2005 111.494C45.3096 111.823 45.4933 112.122 45.7373 112.368C45.9813 112.614 46.279 112.8 46.607 112.912C46.935 113.023 47.2843 113.057 47.6277 113.011C53.8889 112.223 68.5425 109.037 74.4951 96.5939C76.5974 92.1837 77.1735 86.9708 76.8994 81.7292C80.4852 79.3779 83.8594 76.7187 86.9837 73.7818C104.642 57.3603 117.466 27.0249 114.673 12.6335ZM70.6236 52.9277C69.1162 51.316 68.1207 49.2935 67.7629 47.1159C67.4052 44.9383 67.7013 42.7036 68.6138 40.6943C69.5263 38.6851 71.0142 36.9916 72.8893 35.8281C74.7644 34.6645 76.9424 34.0833 79.1479 34.1577C81.3534 34.2322 83.4873 34.9592 85.2796 36.2465C87.0719 37.5339 88.4421 39.324 89.217 41.3902C89.9918 43.4565 90.1365 45.7061 89.6326 47.8546C89.1288 50.003 87.999 51.9538 86.3864 53.4601C85.3169 54.4611 84.0606 55.2415 82.6893 55.7565C81.318 56.2716 79.8586 56.5112 78.3946 56.4618C76.9306 56.4123 75.4907 56.0748 74.1573 55.4684C72.8239 54.8619 71.6231 53.9986 70.6236 52.9277Z" fill="#2373FF"></path>
<path d="M40.0064 94.1002C38.6904 95.3325 36.6319 95.7606 34.16 96.1027C28.6068 96.8569 23.8923 91.9211 25.0727 86.3729C25.5228 84.2696 26.7426 81.3411 27.463 80.6678C27.6203 80.5236 27.7282 80.3334 27.7714 80.1244C27.8145 79.9153 27.7907 79.698 27.7033 79.5032C27.616 79.3085 27.4694 79.1462 27.2846 79.0395C27.0997 78.9328 26.8859 78.887 26.6736 78.9086C23.5732 79.1821 20.6535 80.485 18.3791 82.6097C12.7336 87.8909 11.5329 108.154 11.5329 108.154C11.5329 108.154 31.8426 108.324 37.4882 103.043C39.7682 100.919 41.267 98.0894 41.7431 95.01C41.8618 94.042 40.699 93.4236 40.0064 94.1002Z" fill="#2373FF"></path>
</svg><style>@media (prefers-color-scheme: light) { :root { filter: none; } }
@media (prefers-color-scheme: dark) { :root { filter: none; } }
</style></svg>