<svg xmlns="http://www.w3.org/2000/svg" version="1.1" xmlns:xlink="http://www.w3.org/1999/xlink" width="1000" height="1000"><style>
    #light-icon {
      display: inline;
    }
    #dark-icon {
      display: none;
    }

    @media (prefers-color-scheme: dark) {
      #light-icon {
        display: none;
      }
      #dark-icon {
        display: inline;
      }
    }
  </style><g id="light-icon"><svg xmlns="http://www.w3.org/2000/svg" version="1.1" xmlns:xlink="http://www.w3.org/1999/xlink" width="1000" height="1000"><g><g transform="matrix(31.25,0,0,31.25,0,0)"><svg xmlns="http://www.w3.org/2000/svg" version="1.1" xmlns:xlink="http://www.w3.org/1999/xlink" width="32" height="32"><svg width="32" height="32" viewBox="0 0 32 32" fill="none" xmlns="http://www.w3.org/2000/svg">
<path d="M29.8523 2.39131C29.8409 2.33603 29.8139 2.28515 29.7746 2.24464C29.7353 2.20412 29.6853 2.17565 29.6304 2.16256C25.9698 1.26756 17.5117 4.45693 12.9292 9.03756C12.1118 9.84828 11.3667 10.7287 10.7023 11.6688C9.28916 11.5438 7.87604 11.6482 6.67166 12.1732C3.27354 13.6688 2.28416 17.5713 2.00854 19.2501C1.9929 19.3419 1.9988 19.4362 2.02576 19.5254C2.05273 19.6146 2.10002 19.6964 2.16393 19.7642C2.22784 19.8321 2.30662 19.8842 2.39407 19.9164C2.48152 19.9487 2.57526 19.9602 2.66791 19.9501L8.12479 19.3482C8.12867 19.7596 8.1535 20.1705 8.19916 20.5794C8.22662 20.8634 8.35267 21.1287 8.55541 21.3294L10.6685 23.4376C10.8694 23.64 11.1347 23.766 11.4185 23.7938C11.8251 23.8392 12.2338 23.8641 12.6429 23.8682L12.0442 29.3182C12.0342 29.4108 12.0458 29.5045 12.0781 29.5919C12.1104 29.6793 12.1625 29.758 12.2303 29.8219C12.2981 29.8857 12.3798 29.933 12.4689 29.9601C12.5581 29.9871 12.6523 29.9931 12.7442 29.9776C14.4198 29.7088 18.3292 28.7194 19.816 25.3213C20.341 24.1169 20.4485 22.7107 20.3273 21.3044C21.2697 20.6399 22.1524 19.8946 22.9654 19.0769C27.5623 14.5032 30.7335 6.23381 29.8523 2.39131ZM18.3792 13.6207C17.9594 13.2012 17.6735 12.6667 17.5576 12.0847C17.4417 11.5027 17.501 10.8994 17.728 10.3511C17.955 9.80278 18.3395 9.33413 18.8329 9.0044C19.3263 8.67466 19.9064 8.49867 20.4998 8.49867C21.0932 8.49867 21.6733 8.67466 22.1667 9.0044C22.6601 9.33413 23.0446 9.80278 23.2716 10.3511C23.4986 10.8994 23.5579 11.5027 23.442 12.0847C23.3261 12.6667 23.0402 13.2012 22.6204 13.6207C22.3421 13.8994 22.0115 14.1206 21.6476 14.2714C21.2838 14.4223 20.8937 14.5 20.4998 14.5C20.1059 14.5 19.7158 14.4223 19.3519 14.2714C18.9881 14.1206 18.6575 13.8994 18.3792 13.6207Z" fill="#2B2B2B"></path>
<path d="M10.525 24.9644C10.1825 25.3075 9.63313 25.4413 8.97188 25.5556C7.48625 25.8088 6.17437 24.525 6.44125 23.0231C6.54312 22.4538 6.84438 21.6556 7.03188 21.4681C7.07286 21.4279 7.10014 21.3759 7.10984 21.3193C7.11954 21.2627 7.11116 21.2045 7.08591 21.153C7.06065 21.1014 7.0198 21.0591 6.96915 21.0321C6.9185 21.0051 6.86063 20.9948 6.80375 21.0025C5.97297 21.1042 5.20008 21.4808 4.60813 22.0725C3.13875 23.5431 3 29 3 29C3 29 8.46 28.8613 9.92937 27.3906C10.5229 26.7991 10.9 26.0251 11 25.1931C11.0231 24.9319 10.705 24.7763 10.525 24.9644Z" fill="#2B2B2B"></path>
</svg></svg></g></g></svg></g><g id="dark-icon"><svg xmlns="http://www.w3.org/2000/svg" version="1.1" xmlns:xlink="http://www.w3.org/1999/xlink" width="1000" height="1000"><g><g transform="matrix(35.714285714285715,0,0,35.714285714285715,0,0)"><svg xmlns="http://www.w3.org/2000/svg" version="1.1" xmlns:xlink="http://www.w3.org/1999/xlink" width="28" height="28"><svg width="28" height="28" viewBox="0 0 28 28" fill="none" xmlns="http://www.w3.org/2000/svg">
<path d="M26.1208 2.09191C26.1108 2.04354 26.0872 1.99902 26.0528 1.96357C26.0184 1.92812 25.9746 1.90321 25.9266 1.89175C22.7236 1.10862 15.3227 3.89933 11.313 7.90738C10.5979 8.61676 9.94588 9.38712 9.3645 10.2097C8.12802 10.1003 6.89153 10.1917 5.8377 10.651C2.86434 11.9597 1.99864 15.3744 1.75747 16.8433C1.74379 16.9237 1.74895 17.0062 1.77254 17.0843C1.79614 17.1623 1.83752 17.2339 1.89344 17.2932C1.94936 17.3526 2.01829 17.3982 2.09481 17.4264C2.17133 17.4546 2.25335 17.4647 2.33442 17.4558L7.10919 16.9292C7.11259 17.2892 7.13431 17.6487 7.17427 18.0065C7.19829 18.255 7.30858 18.4872 7.48598 18.6628L9.33497 20.5074C9.51076 20.6845 9.74285 20.7948 9.99122 20.8191C10.347 20.8588 10.7046 20.8806 11.0625 20.8842L10.5386 25.6529C10.5299 25.734 10.5401 25.8159 10.5683 25.8924C10.5966 25.9689 10.6421 26.0377 10.7015 26.0936C10.7608 26.1495 10.8323 26.1909 10.9103 26.2146C10.9883 26.2382 11.0708 26.2434 11.1511 26.2299C12.6173 25.9947 16.038 25.129 17.339 22.1557C17.7984 21.1018 17.8925 19.8714 17.7864 18.6409C18.611 18.0595 19.3833 17.4073 20.0947 16.6918C24.117 12.6898 26.8918 5.45409 26.1208 2.09191ZM16.0818 11.9176C15.7145 11.5506 15.4643 11.0828 15.3629 10.5736C15.2615 10.0643 15.3133 9.53645 15.512 9.0567C15.7106 8.57694 16.047 8.16687 16.4788 7.87836C16.9105 7.58984 17.4181 7.43585 17.9373 7.43585C18.4566 7.43585 18.9641 7.58984 19.3959 7.87836C19.8276 8.16687 20.164 8.57694 20.3627 9.0567C20.5613 9.53645 20.6132 10.0643 20.5117 10.5736C20.4103 11.0828 20.1601 11.5506 19.7929 11.9176C19.5493 12.1615 19.2601 12.355 18.9417 12.487C18.6233 12.619 18.282 12.687 17.9373 12.687C17.5926 12.687 17.2513 12.619 16.9329 12.487C16.6146 12.355 16.3253 12.1615 16.0818 11.9176Z" fill="white"></path>
<path d="M9.20937 21.8438C8.90969 22.1441 8.42898 22.2611 7.85039 22.3612C6.55047 22.5827 5.40258 21.4594 5.63609 20.1452C5.72523 19.647 5.98883 18.9487 6.15289 18.7846C6.18875 18.7494 6.21262 18.7039 6.22111 18.6544C6.22959 18.6049 6.22227 18.5539 6.20017 18.5088C6.17807 18.4637 6.14233 18.4267 6.09801 18.4031C6.05369 18.3795 6.00305 18.3704 5.95328 18.3772C5.22635 18.4661 4.55007 18.7957 4.03211 19.3134C2.74641 20.6002 2.625 25.375 2.625 25.375C2.625 25.375 7.4025 25.2536 8.6882 23.9668C9.20751 23.4492 9.53749 22.7719 9.625 22.044C9.64523 21.8154 9.36687 21.6792 9.20937 21.8438Z" fill="white"></path>
</svg></svg></g></g></svg></g></svg>